<svg xmlns="http://www.w3.org/2000/svg" viewBox="272 169 58 67">
  <path fill="#000" d="M316.71 193.364C314.093 192.169 311.138 191.911 308.351 192.634C305.563 193.357 303.116 195.016 301.429 197.327C306.412 196.903 310.498 198.108 310.674 199.425L310.193 203.946H310.157C310.167 203.857 310.167 203.767 310.157 203.678C309.924 201.933 305.788 201.03 300.917 201.663C296.046 202.295 292.288 204.226 292.519 205.971C292.533 206.06 292.557 206.147 292.59 206.23L292.503 206.242L290.904 201.991C290.737 200.675 294.348 198.476 299.266 197.609C297.61 195.2 295.144 193.451 292.306 192.673C289.468 191.896 286.444 192.14 283.771 193.364C277.145 196.393 273.974 204.144 279.207 213.287C282.924 219.783 288.753 224.688 300.246 233.476C301.151 232.786 302.017 232.12 302.846 231.478C301.431 222.987 299.388 214.611 296.732 206.416C296.606 205.479 298.626 204.445 301.241 204.106C303.855 203.766 306.086 204.251 306.201 205.187C305.649 212.992 305.75 220.829 306.505 228.617C313.987 222.673 318.313 218.485 321.284 213.292C326.515 204.144 323.344 196.393 316.71 193.364Z"/>
  <path fill="#000" d="M306.401 184.74C305.243 185.472 304.346 186.543 303.832 187.804C303.319 189.064 303.215 190.452 303.536 191.773C306.282 187.783 314.636 191.39 317.414 182.222C315.854 183.434 313.907 184.054 311.925 183.971C313.125 183.459 314.187 182.676 315.026 181.685C315.865 180.694 316.459 179.523 316.758 178.264C317.058 177.006 317.055 175.696 316.751 174.438C316.447 173.181 315.849 172.012 315.006 171.024C316.208 176.335 309.343 176.796 303.959 177.789C293.835 179.664 292.184 188.893 296.777 193.601C296.242 188.017 300.764 184.686 306.401 184.74Z"/>
</svg>
