<svg xmlns="http://www.w3.org/2000/svg" viewBox="90 128 124 149">
  <path fill="#000" d="M189.236 182.043C183.285 179.327 176.566 178.74 170.227 180.384C163.889 182.029 158.324 185.801 154.487 191.056C165.819 190.092 175.11 192.83 175.511 195.826L174.418 206.108H174.334C174.357 205.905 174.357 205.7 174.334 205.497C173.805 201.529 164.399 199.476 153.323 200.915C142.247 202.353 133.701 206.744 134.226 210.712C134.257 210.914 134.312 211.111 134.389 211.301L134.19 211.327L130.554 201.66C130.175 198.669 138.386 193.668 149.568 191.697C145.804 186.219 140.195 182.241 133.742 180.473C127.289 178.705 120.411 179.261 114.335 182.043C99.2653 188.932 92.0547 206.557 103.955 227.347C112.408 242.12 125.662 253.274 151.798 273.257C153.855 271.688 155.825 270.173 157.709 268.714C154.493 249.406 149.846 230.358 143.807 211.724C143.521 209.592 148.114 207.241 154.059 206.47C160.005 205.698 165.078 206.801 165.338 208.929C164.083 226.677 164.314 244.498 166.03 262.208C183.043 248.691 192.881 239.168 199.637 227.36C211.533 206.557 204.322 188.932 189.236 182.043Z"/>
  <path fill="#000" d="M165.792 162.432C163.161 164.097 161.119 166.533 159.952 169.399C158.784 172.266 158.549 175.421 159.278 178.426C165.524 169.352 184.52 177.554 190.836 156.707C187.288 159.463 182.861 160.874 178.354 160.684C181.083 159.52 183.498 157.74 185.406 155.486C187.315 153.233 188.664 150.569 189.345 147.707C190.026 144.846 190.021 141.866 189.329 139.007C188.637 136.148 187.279 133.489 185.362 131.243C188.094 143.321 172.483 144.367 160.239 146.626C137.219 150.89 133.463 171.877 143.909 182.582C142.693 169.884 152.975 162.31 165.792 162.432Z"/>
</svg>
