<svg preserveAspectRatio="none" width="100%" height="100%" overflow="visible" style="display: block;" viewBox="0 0 444.436 404.5" fill="none" xmlns="http://www.w3.org/2000/svg">
<g id="preview-logo">
<rect width="444.436" height="404.5" rx="20" fill="var(--fill-0, white)" style="fill:white;fill-opacity:1;"/>
<g id="logo-l">
<path d="M189.236 182.043C183.285 179.327 176.566 178.74 170.227 180.384C163.889 182.029 158.324 185.801 154.487 191.056C165.819 190.092 175.11 192.83 175.511 195.826L174.418 206.108H174.334C174.357 205.905 174.357 205.7 174.334 205.497C173.805 201.529 164.399 199.476 153.323 200.915C142.247 202.353 133.701 206.744 134.226 210.712C134.257 210.914 134.312 211.111 134.389 211.301L134.19 211.327L130.554 201.66C130.175 198.669 138.386 193.668 149.568 191.697C145.804 186.219 140.195 182.241 133.742 180.473C127.289 178.705 120.411 179.261 114.335 182.043C99.2653 188.932 92.0547 206.557 103.955 227.347C112.408 242.12 125.662 253.274 151.798 273.257C153.855 271.688 155.825 270.173 157.709 268.714C154.493 249.406 149.846 230.358 143.807 211.724C143.521 209.592 148.114 207.241 154.059 206.47C160.005 205.698 165.078 206.801 165.338 208.929C164.083 226.677 164.314 244.498 166.03 262.208C183.043 248.691 192.881 239.168 199.637 227.36C211.533 206.557 204.322 188.932 189.236 182.043Z" fill="url(#paint0_linear_0_17)"/>
<path d="M165.792 162.432C163.161 164.097 161.119 166.533 159.952 169.399C158.784 172.266 158.549 175.421 159.278 178.426C165.524 169.352 184.52 177.554 190.836 156.707C187.288 159.463 182.861 160.874 178.354 160.684C181.083 159.52 183.498 157.74 185.406 155.486C187.315 153.233 188.664 150.569 189.345 147.707C190.026 144.846 190.021 141.866 189.329 139.007C188.637 136.148 187.279 133.489 185.362 131.243C188.094 143.321 172.483 144.367 160.239 146.626C137.219 150.89 133.463 171.877 143.909 182.582C142.693 169.884 152.975 162.31 165.792 162.432Z" fill="url(#paint1_linear_0_17)"/>
</g>
<g id="logo-s">
<path d="M316.71 193.364C314.093 192.169 311.138 191.911 308.351 192.634C305.563 193.357 303.116 195.016 301.429 197.327C306.412 196.903 310.498 198.108 310.674 199.425L310.193 203.946H310.157C310.167 203.857 310.167 203.767 310.157 203.678C309.924 201.933 305.788 201.03 300.917 201.663C296.046 202.295 292.288 204.226 292.519 205.971C292.533 206.06 292.557 206.147 292.59 206.23L292.503 206.242L290.904 201.991C290.737 200.675 294.348 198.476 299.266 197.609C297.61 195.2 295.144 193.451 292.306 192.673C289.468 191.896 286.444 192.14 283.771 193.364C277.145 196.393 273.974 204.144 279.207 213.287C282.924 219.783 288.753 224.688 300.246 233.476C301.151 232.786 302.017 232.12 302.846 231.478C301.431 222.987 299.388 214.611 296.732 206.416C296.606 205.479 298.626 204.445 301.241 204.106C303.855 203.766 306.086 204.251 306.201 205.187C305.649 212.992 305.75 220.829 306.505 228.617C313.987 222.673 318.313 218.485 321.284 213.292C326.515 204.144 323.344 196.393 316.71 193.364Z" fill="url(#paint2_linear_0_17)"/>
<path d="M306.401 184.74C305.243 185.472 304.346 186.543 303.832 187.804C303.319 189.064 303.215 190.452 303.536 191.773C306.282 187.783 314.636 191.39 317.414 182.222C315.854 183.434 313.907 184.054 311.925 183.971C313.125 183.459 314.187 182.676 315.026 181.685C315.865 180.694 316.459 179.523 316.758 178.264C317.058 177.006 317.055 175.696 316.751 174.438C316.447 173.181 315.849 172.012 315.006 171.024C316.208 176.335 309.343 176.796 303.959 177.789C293.835 179.664 292.184 188.893 296.777 193.601C296.242 188.017 300.764 184.686 306.401 184.74Z" fill="url(#paint3_linear_0_17)"/>
</g>
</g>
<defs>
<linearGradient id="paint0_linear_0_17" x1="186.421" y1="122.068" x2="103.554" y2="237.096" gradientUnits="userSpaceOnUse">
<stop stop-color="#E07439" style="stop-color:#E07439;stop-color:color(display-p3 0.8784 0.4549 0.2235);stop-opacity:1;"/>
<stop offset="0.341081" stop-color="#CF222B" style="stop-color:#CF222B;stop-color:color(display-p3 0.8118 0.1333 0.1686);stop-opacity:1;"/>
<stop offset="0.56766" stop-color="#CF222B" style="stop-color:#CF222B;stop-color:color(display-p3 0.8118 0.1333 0.1686);stop-opacity:1;"/>
<stop offset="1" stop-color="#7D1F1A" style="stop-color:#7D1F1A;stop-color:color(display-p3 0.4902 0.1216 0.1020);stop-opacity:1;"/>
</linearGradient>
<linearGradient id="paint1_linear_0_17" x1="186.421" y1="122.068" x2="103.554" y2="237.096" gradientUnits="userSpaceOnUse">
<stop stop-color="#E07439" style="stop-color:#E07439;stop-color:color(display-p3 0.8784 0.4549 0.2235);stop-opacity:1;"/>
<stop offset="0.341081" stop-color="#CF222B" style="stop-color:#CF222B;stop-color:color(display-p3 0.8118 0.1333 0.1686);stop-opacity:1;"/>
<stop offset="0.56766" stop-color="#CF222B" style="stop-color:#CF222B;stop-color:color(display-p3 0.8118 0.1333 0.1686);stop-opacity:1;"/>
<stop offset="1" stop-color="#7D1F1A" style="stop-color:#7D1F1A;stop-color:color(display-p3 0.4902 0.1216 0.1020);stop-opacity:1;"/>
</linearGradient>
<linearGradient id="paint2_linear_0_17" x1="315.472" y1="166.989" x2="279.031" y2="217.574" gradientUnits="userSpaceOnUse">
<stop stop-color="#E07439" style="stop-color:#E07439;stop-color:color(display-p3 0.8784 0.4549 0.2235);stop-opacity:1;"/>
<stop offset="0.341081" stop-color="#CF222B" style="stop-color:#CF222B;stop-color:color(display-p3 0.8118 0.1333 0.1686);stop-opacity:1;"/>
<stop offset="0.56766" stop-color="#CF222B" style="stop-color:#CF222B;stop-color:color(display-p3 0.8118 0.1333 0.1686);stop-opacity:1;"/>
<stop offset="1" stop-color="#7D1F1A" style="stop-color:#7D1F1A;stop-color:color(display-p3 0.4902 0.1216 0.1020);stop-opacity:1;"/>
</linearGradient>
<linearGradient id="paint3_linear_0_17" x1="315.472" y1="166.989" x2="279.031" y2="217.574" gradientUnits="userSpaceOnUse">
<stop stop-color="#E07439" style="stop-color:#E07439;stop-color:color(display-p3 0.8784 0.4549 0.2235);stop-opacity:1;"/>
<stop offset="0.341081" stop-color="#CF222B" style="stop-color:#CF222B;stop-color:color(display-p3 0.8118 0.1333 0.1686);stop-opacity:1;"/>
<stop offset="0.56766" stop-color="#CF222B" style="stop-color:#CF222B;stop-color:color(display-p3 0.8118 0.1333 0.1686);stop-opacity:1;"/>
<stop offset="1" stop-color="#7D1F1A" style="stop-color:#7D1F1A;stop-color:color(display-p3 0.4902 0.1216 0.1020);stop-opacity:1;"/>
</linearGradient>
</defs>
</svg>
