<svg preserveAspectRatio="none" width="100%" height="100%" overflow="visible" style="display: block;" viewBox="0 0 63.7253 20.7628" fill="none" xmlns="http://www.w3.org/2000/svg">
<g id="logo-mrm">
<path id="Vector" d="M0.000188828 0H3.64644L10.5257 13.0783L17.4092 0H20.9091V20.7625H17.6158V5.96229L11.5373 17.3789H9.34182L3.29344 5.96229V20.7625H0.000188828V0Z" fill="var(--fill-0, #3D3C3A)" style="fill:#3D3C3A;fill:color(display-p3 0.2392 0.2353 0.2275);fill-opacity:1;"/>
<path id="Vector_2" d="M24.3027 0.000227571H32.637C37.2347 0.000227571 40.0199 2.46263 40.0199 6.55659C40.0199 9.8197 38.242 12.0152 35.2458 12.7556L40.8809 20.7628H36.8773L31.4187 13.0225H27.6519V20.7628H24.3027V0.000227571ZM32.6672 10.0565C35.2759 10.0565 36.6707 8.81236 36.6707 6.55659C36.6707 4.30082 35.2759 3.08684 32.6672 3.08684H27.6562V10.0565H32.6672Z" fill="var(--fill-0, #3D3C3A)" style="fill:#3D3C3A;fill:color(display-p3 0.2392 0.2353 0.2275);fill-opacity:1;"/>
<path id="Vector_3" d="M42.8164 0.000227571H46.4627L53.3419 13.0785L60.2254 0.000227571H63.7253V20.7628H60.4321V5.96251L54.3535 17.3791H52.158L46.1097 5.96251V20.7628H42.8164V0.000227571Z" fill="var(--fill-0, #3D3C3A)" style="fill:#3D3C3A;fill:color(display-p3 0.2392 0.2353 0.2275);fill-opacity:1;"/>
</g>
</svg>
